<svg width="52" height="52" viewBox="0 0 52 52" fill="none" xmlns="http://www.w3.org/2000/svg">
<rect width="52" height="52" rx="12" fill="#FFB800" fill-opacity="0.13"/>
<path fill-rule="evenodd" clip-rule="evenodd" d="M12 27.0781L14.6039 23.0365L13.1076 22.1133L19.0568 22.2775L21.809 27.4822L20.3084 26.5565L15.6315 33.8245L12 27.0781ZM32.318 13.5593L34.4149 17.8767L36.0055 17.1204L32.7026 21.9898L26.7571 21.5171L28.3519 20.759L24.5775 13L32.318 13.5593ZM34.5409 37.2847L29.6761 37.2626V39L26.6561 33.9559L29.6761 28.8969V30.6392L38.4215 30.6733L34.5409 37.2847Z" fill="#FFB800"/>
<path fill-rule="evenodd" clip-rule="evenodd" d="M26.2333 31.0218L25.0006 34.1609L26.2206 37.2552L18.4384 37.2401C16.4956 37.2362 16.6824 31.0031 18.2988 31.0063L26.2333 31.0218ZM21.3581 23.3225L19.3093 20.6271L15.9961 19.9993L20.1446 13.5233C21.1804 11.9067 26.4492 15.3746 25.5879 16.7197L21.3581 23.3225ZM30.3737 23.3301L33.7326 22.689L35.7489 20.0281L39.8718 26.5205C40.9009 28.1411 35.4331 31.2979 34.577 29.9493L30.3737 23.3301Z" fill="#FFB800"/>
</svg>
