<svg width="52" height="52" viewBox="0 0 52 52" fill="none" xmlns="http://www.w3.org/2000/svg">
<rect width="52" height="52" rx="12" fill="#01D34A" fill-opacity="0.18"/>
<path fill-rule="evenodd" clip-rule="evenodd" d="M37.4205 22.308C37.611 22.8965 37.757 23.5055 37.855 24.13C37.9505 24.7395 38 25.364 38 26C38 29.3115 36.6555 32.3115 34.4835 34.4835C32.3115 36.6555 29.3115 38 26 38C24.1775 38 22.449 37.593 20.9015 36.8645C19.2985 36.11 17.889 35.0115 16.769 33.664C16.4995 33.34 16.0565 33.2195 15.66 33.363C15.264 33.506 15 33.882 15 34.3035V38C15 38.552 15.448 39 16 39C16.552 39 17 38.552 17 38V36.721C17.923 37.4965 18.947 38.155 20.0495 38.674C21.856 39.5245 23.873 40 26 40C29.8635 40 33.3635 38.432 35.8975 35.8975C38.432 33.3635 40 29.8635 40 26C40 25.2585 39.942 24.531 39.831 23.8205C39.7165 23.091 39.546 22.38 39.3235 21.692C39.1535 21.167 38.589 20.8785 38.064 21.0485C37.539 21.2185 37.2505 21.7825 37.4205 22.308ZM14.5795 29.692C14.389 29.1035 14.243 28.4945 14.145 27.87C14.0495 27.2605 14 26.636 14 26C14 22.6885 15.3445 19.6885 17.5165 17.5165C19.6885 15.3445 22.6885 14 26 14C27.8225 14 29.551 14.407 31.0985 15.1355C32.7015 15.89 34.111 16.9885 35.231 18.336C35.5005 18.66 35.9435 18.7805 36.34 18.637C36.736 18.494 37 18.118 37 17.6965V14C37 13.448 36.552 13 36 13C35.448 13 35 13.448 35 14V15.279C34.077 14.5035 33.053 13.845 31.9505 13.326C30.144 12.4755 28.127 12 26 12C22.1365 12 18.6365 13.568 16.1025 16.1025C13.568 18.6365 12 22.1365 12 26C12 26.7415 12.058 27.469 12.169 28.1795C12.2835 28.909 12.454 29.62 12.6765 30.308C12.8465 30.833 13.411 31.1215 13.936 30.9515C14.461 30.7815 14.7495 30.2175 14.5795 29.692Z" fill="#75C700"/>
<path fill-rule="evenodd" clip-rule="evenodd" d="M26.8487 17.351C26.3799 16.883 25.6199 16.883 25.1511 17.351C25.1511 17.351 23.3327 19.1686 21.8792 21.4405C20.8288 23.0821 20 24.9588 20 26.5996C20 29.9108 22.6887 32.5995 25.9999 32.5995C29.311 32.5995 31.9998 29.9108 31.9998 26.5996C31.9998 24.9588 31.171 23.0821 30.1206 21.4405C28.667 19.1686 26.8487 17.351 26.8487 17.351Z" fill="#75C700"/>
<path fill-rule="evenodd" clip-rule="evenodd" d="M25.4006 23.952L24.0249 22.5762C23.7909 22.3422 23.4105 22.3422 23.1765 22.5762C22.9425 22.8102 22.9425 23.1906 23.1765 23.4246L25.4006 25.6488V27.552L24.0249 26.1762C23.7909 25.9422 23.4105 25.9422 23.1765 26.1762C22.9425 26.4102 22.9425 26.7906 23.1765 27.0246L25.4006 29.2487V32.0003C25.4006 32.7959 25.7168 33.5591 26.279 34.1219C26.8418 34.6841 27.605 35.0002 28.4006 35.0002C28.7318 35.0002 29.0006 34.7314 29.0006 34.4003C29.0006 34.0691 28.7318 33.8003 28.4006 33.8003C27.923 33.8003 27.4652 33.6107 27.128 33.2729C26.7902 32.9357 26.6006 32.4779 26.6006 32.0003V29.2487L28.8248 27.0246C29.0588 26.7906 29.0588 26.4102 28.8248 26.1762C28.5908 25.9422 28.2104 25.9422 27.9764 26.1762L26.6006 27.552V25.6488L28.8248 23.4246C29.0588 23.1906 29.0588 22.8102 28.8248 22.5762C28.5908 22.3422 28.2104 22.3422 27.9764 22.5762L26.6006 23.952V20.6005C26.6006 20.2693 26.3318 20.0005 26.0006 20.0005C25.6694 20.0005 25.4006 20.2693 25.4006 20.6005V23.952Z" fill="url(#paint0_linear_55_1692)"/>
<defs>
<linearGradient id="paint0_linear_55_1692" x1="26.0006" y1="20.0005" x2="26.0006" y2="35.0002" gradientUnits="userSpaceOnUse">
<stop stop-color="#4C7819"/>
<stop offset="1" stop-color="#385913"/>
</linearGradient>
</defs>
</svg>
